<svg width="213" height="44" viewBox="0 0 213 44" fill="none" xmlns="http://www.w3.org/2000/svg">
<path d="M35.5609 33.2075C35.0823 33.2075 34.6303 33.4172 34.2995 33.7629C31.2011 37.0017 26.8361 39.0189 22 39.0189C12.6008 39.0189 4.98115 31.3993 4.98115 22C4.98115 12.6007 12.6008 4.98113 22 4.98113C27.5452 4.98113 32.471 7.63315 35.5782 11.738C35.9103 12.1767 36.4203 12.4528 36.9705 12.4528H39.1816C40.4057 12.4528 41.1968 11.1763 40.5364 10.1457C36.626 4.04387 29.7853 0 22 0C9.84976 0 0 9.84974 0 22C0 34.1503 9.84976 44 22 44C29.0121 44 35.2579 40.7195 39.2865 35.6095C40.0832 34.599 39.3067 33.2075 38.0199 33.2075H35.5609Z" fill="#4285F4"/>
<path d="M39.5255 17.983L41.3137 21.2525L44.5832 23.0407L41.3137 24.8289L39.5255 28.0984L37.7373 24.8289L34.4678 23.0407L37.7373 21.2525L39.5255 17.983Z" fill="#FFB700"/>
<path d="M35.5609 33.2075C35.0823 33.2075 34.6303 33.4172 34.2995 33.7629C31.2011 37.0017 26.8361 39.0189 22 39.0189C12.6008 39.0189 4.98115 31.3993 4.98115 22C4.98115 12.6007 12.6008 4.98113 22 4.98113C27.5452 4.98113 32.471 7.63315 35.5782 11.738C35.9103 12.1767 36.4203 12.4528 36.9705 12.4528H39.1816C40.4057 12.4528 41.1968 11.1763 40.5364 10.1457C36.626 4.04387 29.7853 0 22 0C9.84976 0 0 9.84974 0 22C0 34.1503 9.84976 44 22 44C29.0121 44 35.2579 40.7195 39.2865 35.6095C40.0832 34.599 39.3067 33.2075 38.0199 33.2075H35.5609Z" fill="#1563FF"/>
<path d="M39.5255 17.983L41.3137 21.2525L44.5832 23.0407L41.3137 24.8289L39.5255 28.0984L37.7373 24.8289L34.4678 23.0407L37.7373 21.2525L39.5255 17.983Z" fill="#FFB700"/>
<path d="M31.9383 17.6083L23.228 22.4689V32.5112L31.9383 27.5043V17.6083Z" fill="#81BEFF"/>
<path d="M22.1976 32.4378V22.4689L13.4873 17.6083V27.431L22.1976 32.4378Z" fill="#449EFF"/>
<path d="M31.5552 16.6805L22.7411 11.614L13.8623 16.7177L22.6754 21.6357L31.5552 16.6805Z" fill="#1563FF"/>
<path d="M66.5304 17.7162C67.3102 17.3142 68.2391 17.1131 69.3135 17.1131C70.2527 17.1131 71.0741 17.2552 71.7812 17.5429C72.4882 17.8271 73.067 18.2326 73.5141 18.756C73.9612 19.2793 74.2558 19.8997 74.391 20.6206H77.8776C77.7286 19.314 77.2745 18.1737 76.5225 17.1963C75.7669 16.2189 74.7757 15.4565 73.5453 14.9123C72.3149 14.3682 70.9112 14.0978 69.3343 14.0978C67.5944 14.0978 66.0695 14.4306 64.7559 15.096C63.4423 15.7615 62.4199 16.6903 61.6851 17.8791C60.9504 19.0679 60.583 20.4577 60.583 22.0485C60.583 23.6393 60.9504 25.0291 61.6851 26.2179C62.4199 27.4067 63.4423 28.3356 64.7559 29.001C66.0695 29.6664 67.5944 29.9992 69.3343 29.9992C70.9112 29.9992 72.3149 29.7254 73.5453 29.1847C74.7757 28.6406 75.7669 27.8746 76.5225 26.8903C77.278 25.906 77.7286 24.7657 77.8776 23.473H74.391C74.2558 24.2077 73.9612 24.8351 73.5141 25.3584C73.067 25.8817 72.4882 26.2838 71.7812 26.5611C71.0741 26.8383 70.2527 26.9804 69.3135 26.9804C68.2391 26.9804 67.3102 26.7794 66.5304 26.3774C65.7471 25.9753 65.1475 25.4069 64.7247 24.6652C64.3019 23.9235 64.0939 23.0501 64.0939 22.0451C64.0939 21.04 64.3053 20.1666 64.7247 19.4249C65.1441 18.6832 65.7471 18.1113 66.5304 17.7127V17.7162Z" fill="#1563FF"/>
<path d="M87.1799 17.7855C86.3932 17.7855 85.7104 17.9449 85.142 18.2638C84.5701 18.5827 84.0918 19.0194 83.7037 19.567C83.4541 19.9239 83.2393 20.3225 83.0625 20.7523V18.087H79.6174L79.659 21.8995V29.6907H83.066V24.6756C83.066 23.7641 83.2219 23.012 83.5338 22.4124C83.8458 21.8128 84.2755 21.3727 84.8197 21.0885C85.3638 20.8043 85.9738 20.6587 86.6531 20.6587C86.965 20.6587 87.2978 20.6795 87.6513 20.7211C88.0048 20.7627 88.3583 20.8216 88.7118 20.9048V17.9692C88.4796 17.9138 88.2335 17.8722 87.9667 17.8375C87.7033 17.8028 87.4399 17.7855 87.1799 17.7855Z" fill="#1563FF"/>
<path d="M101.504 21.1716C100.981 20.0972 100.236 19.2654 99.2723 18.6728C98.3054 18.0801 97.1512 17.7855 95.8065 17.7855C94.4617 17.7855 93.3111 18.042 92.2783 18.5515C91.2454 19.0609 90.431 19.7714 89.8418 20.683C89.2491 21.5945 88.9545 22.655 88.9545 23.8646C88.9545 25.0742 89.263 26.1625 89.8833 27.0879C90.5037 28.0132 91.3529 28.7307 92.4342 29.2402C93.5156 29.7496 94.7425 30.0061 96.1149 30.0061C97.2448 30.0061 98.3123 29.8536 99.3278 29.5486C100.34 29.2436 101.227 28.8173 101.99 28.2732V25.9892C101.283 26.4501 100.489 26.8071 99.6051 27.0601C98.7213 27.3131 97.8444 27.4379 96.9745 27.4379C96.0075 27.4379 95.1861 27.2889 94.5068 26.9908C93.8275 26.6928 93.3111 26.2561 92.9576 25.6842C92.8224 25.4658 92.7219 25.2232 92.6352 24.9702H102.295C102.295 23.5146 102.031 22.253 101.508 21.1786L101.504 21.1716ZM92.5209 22.7001C92.5902 22.402 92.6941 22.1282 92.8362 21.8752C93.1135 21.3796 93.5086 20.9914 94.0181 20.7142C94.5276 20.4369 95.1306 20.2948 95.8238 20.2948C96.4615 20.2948 97.0195 20.423 97.4978 20.683C97.9726 20.9429 98.3504 21.3068 98.6277 21.7851C98.7871 22.0554 98.905 22.3639 98.9916 22.7036H92.5209V22.7001Z" fill="#1563FF"/>
<path d="M138.759 18.451C138.017 18.0108 137.13 17.789 136.097 17.789C135.199 17.789 134.381 18.0143 133.64 18.4614C132.898 18.9084 132.285 19.5566 131.796 20.3988C131.72 20.5305 131.654 20.676 131.588 20.8147C131.529 20.6518 131.47 20.4889 131.397 20.3364C131.009 19.5219 130.448 18.8911 129.716 18.451C128.982 18.0108 128.098 17.789 127.065 17.789C126.153 17.789 125.329 18.0143 124.587 18.4614C123.932 18.8565 123.384 19.4145 122.927 20.118V18.094H119.52V29.6976H122.927V24.0899C122.927 23.369 123.045 22.7521 123.284 22.2357C123.523 21.7193 123.866 21.3138 124.313 21.0226C124.76 20.7315 125.29 20.5859 125.904 20.5859C126.774 20.5859 127.436 20.8528 127.893 21.39C128.347 21.9272 128.576 22.7174 128.576 23.7641V29.6976H131.983V24.0899C131.983 23.369 132.101 22.7521 132.34 22.2357C132.579 21.7193 132.922 21.3138 133.369 21.0226C133.816 20.7315 134.347 20.5859 134.96 20.5859C135.83 20.5859 136.492 20.8528 136.95 21.39C137.407 21.9272 137.632 22.7174 137.632 23.7641V29.6976H141.039V23.2546C141.039 22.1282 140.845 21.1543 140.457 20.3398C140.069 19.5254 139.504 18.8946 138.766 18.4544L138.759 18.451Z" fill="#1563FF"/>
<path d="M148.467 17.7162C149.246 17.3142 150.175 17.1131 151.25 17.1131C152.189 17.1131 153.01 17.2552 153.717 17.5429C154.424 17.8271 155.003 18.2326 155.45 18.756C155.897 19.2793 156.192 19.8997 156.327 20.6206H159.814C159.665 19.314 159.211 18.1737 158.459 17.1963C157.703 16.2189 156.712 15.4565 155.481 14.9123C154.251 14.3682 152.847 14.0978 151.27 14.0978C149.531 14.0978 148.006 14.4306 146.692 15.096C145.378 15.7615 144.356 16.6903 143.625 17.8791C142.89 19.0679 142.523 20.4577 142.523 22.0485C142.523 23.6393 142.89 25.0291 143.625 26.2179C144.36 27.4067 145.382 28.3356 146.692 29.001C148.006 29.6664 149.531 29.9992 151.27 29.9992C152.847 29.9992 154.251 29.7254 155.481 29.1847C156.712 28.644 157.703 27.8746 158.459 26.8903C159.214 25.906 159.665 24.7657 159.814 23.473H156.327C156.192 24.2077 155.897 24.8351 155.45 25.3584C155.003 25.8817 154.424 26.2838 153.717 26.5611C153.01 26.8383 152.189 26.9804 151.25 26.9804C150.175 26.9804 149.246 26.7794 148.467 26.3774C147.683 25.9753 147.084 25.4069 146.661 24.6652C146.238 23.9235 146.03 23.0501 146.03 22.0451C146.03 21.04 146.241 20.1666 146.661 19.4249C147.08 18.6832 147.683 18.1113 148.467 17.7127V17.7162Z" fill="#1563FF"/>
<path d="M171.865 18.5515C170.776 18.042 169.511 17.7855 168.073 17.7855C166.635 17.7855 165.366 18.042 164.281 18.5515C163.196 19.0609 162.344 19.7749 161.734 20.6934C161.124 21.6118 160.815 22.6828 160.815 23.9062C160.815 25.1297 161.12 26.1798 161.734 27.0983C162.347 28.0167 163.196 28.7307 164.281 29.2402C165.37 29.7496 166.635 30.0061 168.073 30.0061C169.511 30.0061 170.776 29.7496 171.865 29.2402C172.953 28.7307 173.798 28.0167 174.405 27.0983C175.012 26.1798 175.313 25.1158 175.313 23.9062C175.313 22.6966 175.012 21.6118 174.405 20.6934C173.798 19.7749 172.953 19.0609 171.865 18.5515ZM171.407 25.7708C171.102 26.2942 170.665 26.6997 170.104 26.9839C169.539 27.2681 168.863 27.4137 168.076 27.4137C167.29 27.4137 166.628 27.2716 166.056 26.9839C165.484 26.6997 165.047 26.2942 164.742 25.7708C164.437 25.2475 164.285 24.6271 164.285 23.9062C164.285 23.1853 164.437 22.5441 164.742 22.0208C165.047 21.4974 165.487 21.0919 166.056 20.8077C166.628 20.5235 167.3 20.378 168.076 20.378C168.853 20.378 169.542 20.5201 170.104 20.8077C170.669 21.0919 171.102 21.4974 171.407 22.0208C171.712 22.5441 171.865 23.1715 171.865 23.9062C171.865 24.641 171.712 25.2475 171.407 25.7708Z" fill="#1563FF"/>
<path d="M180.349 13.9939H176.942V29.6942H180.349V13.9939Z" fill="#1563FF"/>
<path d="M185.977 13.9939H182.571V29.6942H185.977V13.9939Z" fill="#1563FF"/>
<path d="M212.089 17.8375C211.826 17.8028 211.562 17.7855 211.306 17.7855C210.516 17.7855 209.836 17.9449 209.268 18.2638C208.7 18.5827 208.218 19.0194 207.83 19.567C207.58 19.9239 207.369 20.3225 207.189 20.7523V18.087H203.743L203.785 21.8995V29.6907H207.192V24.6756C207.192 23.7641 207.348 23.012 207.66 22.4124C207.972 21.8128 208.402 21.3727 208.946 21.0885C209.49 20.8043 210.1 20.6587 210.779 20.6587C211.091 20.6587 211.424 20.6795 211.777 20.7211C212.131 20.7627 212.484 20.8216 212.838 20.9048V17.9692C212.606 17.9138 212.36 17.8722 212.093 17.8375H212.089Z" fill="#1563FF"/>
<path d="M113.985 20.2601C113.455 19.5427 112.824 18.9639 112.086 18.5411C111.209 18.0385 110.228 17.7855 109.14 17.7855C108.051 17.7855 107.012 18.042 106.142 18.5515C105.272 19.0609 104.596 19.7749 104.114 20.6934C103.632 21.6118 103.39 22.6828 103.39 23.9062C103.39 25.1297 103.632 26.1798 104.114 27.0983C104.596 28.0167 105.272 28.7307 106.142 29.2402C107.012 29.7496 108.01 30.0061 109.14 30.0061C110.269 30.0061 111.209 29.7531 112.086 29.2505C112.827 28.8242 113.458 28.242 113.985 27.5176L113.891 29.6976H117.42V18.094H113.891L113.985 20.2636V20.2601ZM113.17 25.6669C112.9 26.1625 112.47 26.5437 111.971 26.8141C111.472 27.0844 110.876 27.2196 110.179 27.2196C109.483 27.2196 108.9 27.0844 108.398 26.8141C107.895 26.5437 107.507 26.1625 107.237 25.6669C106.967 25.1712 106.831 24.5855 106.831 23.9027C106.831 23.22 106.967 22.6169 107.237 22.1213C107.507 21.6257 107.892 21.2444 108.398 20.9741C108.9 20.7038 109.497 20.5686 110.179 20.5686C110.862 20.5686 111.472 20.7038 111.971 20.9741C112.47 21.2444 112.9 21.6257 113.17 22.1213C113.441 22.6169 113.614 23.1992 113.614 23.8958C113.614 24.5925 113.441 25.1747 113.17 25.6669Z" fill="#1563FF"/>
<path d="M198.243 20.2601C197.713 19.5427 197.082 18.9639 196.344 18.5411C195.467 18.0385 194.486 17.7855 193.398 17.7855C192.31 17.7855 191.27 18.042 190.4 18.5515C189.53 19.0609 188.854 19.7749 188.372 20.6934C187.891 21.6118 187.648 22.6828 187.648 23.9062C187.648 25.1297 187.891 26.1798 188.372 27.0983C188.854 28.0167 189.53 28.7307 190.4 29.2402C191.27 29.7496 192.268 30.0061 193.398 30.0061C194.528 30.0061 195.467 29.7531 196.344 29.2505C197.086 28.8242 197.716 28.242 198.243 27.5176L198.15 29.6976H201.678V18.094H198.15L198.243 20.2636V20.2601ZM197.432 25.6669C197.162 26.1625 196.732 26.5437 196.233 26.8141C195.734 27.0844 195.138 27.2196 194.441 27.2196C193.745 27.2196 193.162 27.0844 192.66 26.8141C192.157 26.5437 191.769 26.1625 191.499 25.6669C191.228 25.1712 191.093 24.5855 191.093 23.9027C191.093 23.22 191.228 22.6169 191.499 22.1213C191.769 21.6257 192.154 21.2444 192.66 20.9741C193.162 20.7038 193.758 20.5686 194.441 20.5686C195.124 20.5686 195.734 20.7038 196.233 20.9741C196.732 21.2444 197.162 21.6257 197.432 22.1213C197.702 22.6169 197.876 23.1992 197.876 23.8958C197.876 24.5925 197.702 25.1747 197.432 25.6669Z" fill="#1563FF"/>
</svg>
